<svg data-v-fde0c5aa="" xmlns="http://www.w3.org/2000/svg" viewBox="0 0 300 300" class="font"><!----><defs data-v-fde0c5aa=""><!----></defs><rect data-v-fde0c5aa="" fill="#ffffff" x="0" y="0" width="300px" height="300px" class="logo-background-square"></rect><defs data-v-fde0c5aa=""><!----></defs><g data-v-fde0c5aa="" id="bd3e2da0-93a5-4e9e-bbb1-f3ecff865861" fill="#000000" transform="matrix(3.6569149028923027,0,0,3.6569149028923027,29.760638446276843,115.66156955009208)"><path d="M9.63 13.43L9.63 13.43Q8.99 13.65 8.38 13.76L8.38 13.76L8.38 13.76Q7.77 13.87 7 13.87L7 13.87L7 13.87Q5.56 13.87 4.62 13.27L4.62 13.27L4.62 13.27Q3.68 12.67 3.24 11.66L3.24 11.66L3.24 11.66Q2.80 10.64 2.80 9.35L2.80 9.35L2.80 9.35Q2.80 7.38 3.82 6.15L3.82 6.15L3.82 6.15Q4.84 4.91 7 4.91L7 4.91L7 4.91Q7.80 4.91 8.37 5.02L8.37 5.02L8.37 5.02Q8.93 5.12 9.63 5.32L9.63 5.32L9.48 7.46L8.78 7.46L8.43 6.09L8.43 6.09Q8.20 6.01 7.88 5.96L7.88 5.96L7.88 5.96Q7.56 5.91 7.27 5.91L7.27 5.91L7.27 5.91Q5.85 5.91 5.32 6.85L5.32 6.85L5.32 6.85Q4.79 7.80 4.79 9.35L4.79 9.35L4.79 9.35Q4.79 10.84 5.34 11.84L5.34 11.84L5.34 11.84Q5.89 12.84 7.21 12.84L7.21 12.84L7.21 12.84Q7.80 12.84 8.43 12.66L8.43 12.66L8.78 11.45L9.52 11.45L9.63 13.43ZM13.83 6.69L13.83 6.69Q15.62 6.69 16.47 7.69L16.47 7.69L16.47 7.69Q17.32 8.68 17.32 10.30L17.32 10.30L17.32 10.30Q17.32 11.87 16.46 12.87L16.46 12.87L16.46 12.87Q15.61 13.86 13.83 13.86L13.83 13.86L13.83 13.86Q12.10 13.86 11.25 12.87L11.25 12.87L11.25 12.87Q10.40 11.87 10.40 10.30L10.40 10.30L10.40 10.30Q10.40 8.68 11.23 7.69L11.23 7.69L11.23 7.69Q12.07 6.69 13.83 6.69L13.83 6.69ZM15.29 10.28L15.29 10.28Q15.29 9.00 14.97 8.32L14.97 8.32L14.97 8.32Q14.64 7.63 13.80 7.63L13.80 7.63L13.80 7.63Q13.02 7.63 12.73 8.32L12.73 8.32L12.73 8.32Q12.43 9.00 12.43 10.28L12.43 10.28L12.43 10.28Q12.43 11.54 12.75 12.22L12.75 12.22L12.75 12.22Q13.06 12.91 13.89 12.91L13.89 12.91L13.89 12.91Q14.70 12.91 14.99 12.23L14.99 12.23L14.99 12.23Q15.29 11.55 15.29 10.28L15.29 10.28ZM21 7.25L21 7.25Q21.36 7.08 22.12 6.89L22.12 6.89L22.12 6.89Q22.88 6.69 23.46 6.69L23.46 6.69L23.46 6.69Q24.22 6.69 24.71 7.04L24.71 7.04L24.71 7.04Q25.20 7.39 25.20 8.15L25.20 8.15L25.20 12.74L26.31 13.09L26.31 13.72L22.47 13.72L22.47 13.09L23.31 12.74L23.31 8.62L23.31 8.62Q23.31 8.27 23.23 8.11L23.23 8.11L23.23 8.11Q23.14 7.94 22.95 7.88L22.95 7.88L22.95 7.88Q22.75 7.83 22.34 7.83L22.34 7.83L22.34 7.83Q21.60 7.83 21 7.99L21 7.99L21 12.74L21.84 13.09L21.84 13.72L18.02 13.72L18.02 13.09L19.11 12.74L19.11 8.05L18.02 7.91L18.02 7.21L20.38 6.69L21 6.69L21 7.25ZM30.94 13.54L30.94 13.54Q30.51 13.68 29.93 13.76L29.93 13.76L29.93 13.76Q29.34 13.85 28.94 13.85L28.94 13.85L28.94 13.85Q28.21 13.85 27.95 13.54L27.95 13.54L27.95 13.54Q27.69 13.24 27.69 12.75L27.69 12.75L27.69 7.84L26.68 7.84L26.68 7.18L27.85 6.66L28.70 5.26L29.55 5.26L29.55 6.83L31.14 6.83L31.14 7.92L29.55 7.83L29.55 12.53L30.94 12.84L30.94 13.54ZM35.60 7.88L35.60 7.88Q35.06 7.88 34.69 8.11L34.69 8.11L34.69 12.74L36.32 13.02L36.32 13.72L31.71 13.72L31.71 13.02L32.80 12.74L32.80 8.06L31.71 7.91L31.71 7.24L34.06 6.69L34.69 6.69L34.69 7.34L34.69 7.34Q35.15 7.03 35.73 6.84L35.73 6.84L35.73 6.84Q36.30 6.65 36.78 6.65L36.78 6.65L36.78 6.65Q37.10 6.65 37.18 6.66L37.18 6.66L36.92 9.17L35.90 9.17L35.60 7.88ZM40.59 7.76L40.59 7.76Q40.05 7.76 39.58 7.92L39.58 7.92L39.27 9.10L38.44 9.10L38.21 7.21L38.21 7.21Q39.61 6.69 41.10 6.69L41.10 6.69L41.10 6.69Q42.24 6.69 42.80 7.07L42.80 7.07L42.80 7.07Q43.37 7.45 43.37 8.44L43.37 8.44L43.37 12.56L44.46 12.95L44.46 13.55L44.46 13.55Q43.90 13.69 43.60 13.74L43.60 13.74L43.60 13.74Q43.29 13.79 42.92 13.79L42.92 13.79L42.92 13.79Q42.43 13.79 42.03 13.60L42.03 13.60L42.03 13.60Q41.64 13.41 41.52 13.05L41.52 13.05L41.52 13.05Q40.96 13.47 40.49 13.66L40.49 13.66L40.49 13.66Q40.01 13.86 39.45 13.86L39.45 13.86L39.45 13.86Q38.68 13.86 38.24 13.40L38.24 13.40L38.24 13.40Q37.80 12.94 37.80 12.14L37.80 12.14L37.80 12.14Q37.80 11.47 38.21 10.89L38.21 10.89L38.21 10.89Q38.63 10.30 39.59 10.11L39.59 10.11L41.48 9.72L41.48 8.74L41.48 8.74Q41.48 8.19 41.28 7.97L41.28 7.97L41.28 7.97Q41.08 7.76 40.59 7.76L40.59 7.76ZM40.64 10.74L40.64 10.74Q40.10 10.88 39.87 11.17L39.87 11.17L39.87 11.17Q39.65 11.47 39.65 11.94L39.65 11.94L39.65 11.94Q39.65 12.73 40.38 12.73L40.38 12.73L40.38 12.73Q40.64 12.73 40.96 12.61L40.96 12.61L40.96 12.61Q41.27 12.49 41.48 12.35L41.48 12.35L41.48 10.53L40.64 10.74ZM48.12 13.86L48.12 13.86Q46.48 13.86 45.69 12.87L45.69 12.87L45.69 12.87Q44.90 11.87 44.90 10.30L44.90 10.30L44.90 10.30Q44.90 8.68 45.68 7.69L45.68 7.69L45.68 7.69Q46.47 6.69 48.12 6.69L48.12 6.69L48.12 6.69Q48.82 6.69 49.39 6.80L49.39 6.80L49.39 6.80Q49.97 6.92 50.58 7.14L50.58 7.14L50.30 9.10L49.48 9.10L49.18 7.81L49.18 7.81Q48.73 7.63 48.33 7.63L48.33 7.63L48.33 7.63Q47.50 7.63 47.22 8.32L47.22 8.32L47.22 8.32Q46.93 9.00 46.93 10.28L46.93 10.28L46.93 10.28Q46.93 11.30 47.10 11.84L47.10 11.84L47.10 11.84Q47.26 12.39 47.59 12.60L47.59 12.60L47.59 12.60Q47.92 12.81 48.47 12.81L48.47 12.81L48.47 12.81Q49.34 12.81 50.50 12.47L50.50 12.47L50.61 13.09L50.61 13.09Q50.15 13.43 49.48 13.64L49.48 13.64L49.48 13.64Q48.82 13.86 48.12 13.86L48.12 13.86ZM55.27 13.54L55.27 13.54Q54.84 13.68 54.26 13.76L54.26 13.76L54.26 13.76Q53.68 13.85 53.27 13.85L53.27 13.85L53.27 13.85Q52.54 13.85 52.28 13.54L52.28 13.54L52.28 13.54Q52.02 13.24 52.02 12.75L52.02 12.75L52.02 7.84L51.02 7.84L51.02 7.18L52.18 6.66L53.03 5.26L53.89 5.26L53.89 6.83L55.47 6.83L55.47 7.92L53.89 7.83L53.89 12.53L55.27 12.84L55.27 13.54ZM59.47 6.69L59.47 6.69Q61.26 6.69 62.11 7.69L62.11 7.69L62.11 7.69Q62.96 8.68 62.96 10.30L62.96 10.30L62.96 10.30Q62.96 11.87 62.10 12.87L62.10 12.87L62.10 12.87Q61.25 13.86 59.47 13.86L59.47 13.86L59.47 13.86Q57.74 13.86 56.89 12.87L56.89 12.87L56.89 12.87Q56.04 11.87 56.04 10.30L56.04 10.30L56.04 10.30Q56.04 8.68 56.88 7.69L56.88 7.69L56.88 7.69Q57.71 6.69 59.47 6.69L59.47 6.69ZM60.93 10.28L60.93 10.28Q60.93 9.00 60.61 8.32L60.61 8.32L60.61 8.32Q60.28 7.63 59.44 7.63L59.44 7.63L59.44 7.63Q58.66 7.63 58.37 8.32L58.37 8.32L58.37 8.32Q58.07 9.00 58.07 10.28L58.07 10.28L58.07 10.28Q58.07 11.54 58.39 12.22L58.39 12.22L58.39 12.22Q58.70 12.91 59.53 12.91L59.53 12.91L59.53 12.91Q60.34 12.91 60.63 12.23L60.63 12.23L60.63 12.23Q60.93 11.55 60.93 10.28L60.93 10.28Z"></path></g><!----><!----></svg>