<svg data-v-423bf9ae="" xmlns="http://www.w3.org/2000/svg" viewBox="0 0 559 90" class="iconLeft"><!----><!----><!----><g data-v-423bf9ae="" id="05c95a60-fcf0-400c-8ad9-cdbe50944b18" fill="black" transform="matrix(6.718925459934302,0,0,6.718925459934302,152.9957073073161,-18.124305044766594)"><path d="M7.17 13.41L7.17 13.41Q6.54 13.64 5.95 13.75L5.95 13.75L5.95 13.75Q5.36 13.86 4.59 13.86L4.59 13.86L4.59 13.86Q2.51 13.86 1.49 12.61L1.49 12.61L1.49 12.61Q0.48 11.35 0.48 9.37L0.48 9.37L0.48 9.37Q0.48 7.39 1.48 6.16L1.48 6.16L1.48 6.16Q2.48 4.93 4.59 4.93L4.59 4.93L4.59 4.93Q5.39 4.93 5.95 5.03L5.95 5.03L5.95 5.03Q6.51 5.14 7.17 5.33L7.17 5.33L7.03 7.35L6.40 7.35L6.05 5.98L6.05 5.98Q5.49 5.81 4.84 5.81L4.84 5.81L4.84 5.81Q3.36 5.81 2.79 6.79L2.79 6.79L2.79 6.79Q2.21 7.77 2.21 9.37L2.21 9.37L2.21 9.37Q2.21 10.88 2.81 11.91L2.81 11.91L2.81 11.91Q3.40 12.95 4.79 12.95L4.79 12.95L4.79 12.95Q5.40 12.95 6.05 12.77L6.05 12.77L6.40 11.56L7.06 11.56L7.17 13.41ZM11.48 6.71L11.48 6.71Q13.24 6.71 14.07 7.69L14.07 7.69L14.07 7.69Q14.90 8.68 14.90 10.30L14.90 10.30L14.90 10.30Q14.90 11.89 14.06 12.87L14.06 12.87L14.06 12.87Q13.22 13.86 11.48 13.86L11.48 13.86L11.48 13.86Q9.79 13.86 8.95 12.87L8.95 12.87L8.95 12.87Q8.12 11.87 8.12 10.30L8.12 10.30L8.12 10.30Q8.12 8.68 8.94 7.69L8.94 7.69L8.94 7.69Q9.76 6.71 11.48 6.71L11.48 6.71ZM13.12 10.28L13.12 10.28Q13.12 8.97 12.75 8.26L12.75 8.26L12.75 8.26Q12.39 7.55 11.45 7.55L11.45 7.55L11.45 7.55Q10.57 7.55 10.23 8.26L10.23 8.26L10.23 8.26Q9.88 8.97 9.88 10.28L9.88 10.28L9.88 10.28Q9.88 11.56 10.25 12.29L10.25 12.29L10.25 12.29Q10.61 13.01 11.54 13.01L11.54 13.01L11.54 13.01Q12.45 13.01 12.78 12.29L12.78 12.29L12.78 12.29Q13.12 11.58 13.12 10.28L13.12 10.28ZM18.48 7.27L18.48 7.27Q18.87 7.08 19.61 6.90L19.61 6.90L19.61 6.90Q20.36 6.71 20.96 6.71L20.96 6.71L20.96 6.71Q21.74 6.71 22.24 7.06L22.24 7.06L22.24 7.06Q22.74 7.41 22.74 8.18L22.74 8.18L22.74 12.82L23.90 13.17L23.90 13.72L20.15 13.72L20.15 13.17L21.10 12.82L21.10 8.58L21.10 8.58Q21.10 8.22 21.01 8.04L21.01 8.04L21.01 8.04Q20.92 7.85 20.68 7.79L20.68 7.79L20.68 7.79Q20.44 7.73 19.98 7.73L19.98 7.73L19.98 7.73Q19.19 7.73 18.48 7.92L18.48 7.92L18.48 12.82L19.43 13.17L19.43 13.72L15.69 13.72L15.69 13.17L16.84 12.82L16.84 7.92L15.69 7.78L15.69 7.22L17.95 6.71L18.48 6.71L18.48 7.27ZM28.62 13.55L28.62 13.55Q28.20 13.68 27.57 13.76L27.57 13.76L27.57 13.76Q26.94 13.85 26.56 13.85L26.56 13.85L26.56 13.85Q25.87 13.85 25.61 13.54L25.61 13.54L25.61 13.54Q25.35 13.23 25.35 12.74L25.35 12.74L25.35 7.74L24.35 7.74L24.35 7.14L25.49 6.68L26.24 5.28L26.98 5.28L26.98 6.83L28.81 6.83L28.81 7.84L26.98 7.73L26.98 12.66L28.62 12.96L28.62 13.55ZM33.28 7.78L33.28 7.78Q32.66 7.78 32.16 8.02L32.16 8.02L32.16 12.82L33.77 13.12L33.77 13.72L29.37 13.72L29.37 13.13L30.52 12.82L30.52 7.95L29.37 7.78L29.37 7.24L31.56 6.71L32.14 6.71L32.14 7.35L32.14 7.35Q32.62 7.04 33.19 6.85L33.19 6.85L33.19 6.85Q33.77 6.66 34.26 6.66L34.26 6.66L34.26 6.66Q34.55 6.66 34.65 6.68L34.65 6.68L34.40 9.02L33.57 9.02L33.28 7.78ZM38.09 7.66L38.09 7.66Q37.51 7.66 36.96 7.84L36.96 7.84L36.64 9.02L35.95 9.02L35.71 7.22L35.71 7.22Q37.07 6.71 38.53 6.71L38.53 6.71L38.53 6.71Q39.62 6.71 40.18 7.07L40.18 7.07L40.18 7.07Q40.74 7.43 40.74 8.37L40.74 8.37L40.74 12.68L41.89 13.02L41.89 13.55L41.89 13.55Q40.99 13.79 40.38 13.79L40.38 13.79L40.38 13.79Q39.94 13.79 39.59 13.59L39.59 13.59L39.59 13.59Q39.24 13.40 39.14 13.03L39.14 13.03L39.14 13.03Q38.57 13.44 38.05 13.65L38.05 13.65L38.05 13.65Q37.53 13.86 36.95 13.86L36.95 13.86L36.95 13.86Q36.20 13.86 35.78 13.38L35.78 13.38L35.78 13.38Q35.35 12.89 35.35 12.14L35.35 12.14L35.35 12.14Q35.35 11.47 35.75 10.90L35.75 10.90L35.75 10.90Q36.15 10.33 37.14 10.14L37.14 10.14L39.10 9.76L39.10 8.71L39.10 8.71Q39.10 8.15 38.88 7.90L38.88 7.90L38.88 7.90Q38.65 7.66 38.09 7.66L38.09 7.66ZM38.05 10.72L38.05 10.72Q37.48 10.85 37.23 11.16L37.23 11.16L37.23 11.16Q36.99 11.47 36.99 11.94L36.99 11.94L36.99 11.94Q36.99 12.82 37.81 12.82L37.81 12.82L37.81 12.82Q38.11 12.82 38.47 12.69L38.47 12.69L38.47 12.69Q38.84 12.56 39.10 12.39L39.10 12.39L39.10 10.50L38.05 10.72ZM45.63 13.86L45.63 13.86Q44.02 13.86 43.25 12.87L43.25 12.87L43.25 12.87Q42.48 11.89 42.48 10.30L42.48 10.30L42.48 10.30Q42.48 8.68 43.24 7.69L43.24 7.69L43.24 7.69Q44.00 6.71 45.63 6.71L45.63 6.71L45.63 6.71Q46.30 6.71 46.86 6.81L46.86 6.81L46.86 6.81Q47.42 6.92 48.01 7.14L48.01 7.14L47.74 9.02L47.04 9.02L46.73 7.74L46.73 7.74Q46.27 7.56 45.77 7.56L45.77 7.56L45.77 7.56Q44.88 7.56 44.56 8.26L44.56 8.26L44.56 8.26Q44.24 8.96 44.24 10.28L44.24 10.28L44.24 10.28Q44.24 11.26 44.40 11.83L44.40 11.83L44.40 11.83Q44.56 12.40 44.92 12.66L44.92 12.66L44.92 12.66Q45.28 12.91 45.88 12.91L45.88 12.91L45.88 12.91Q46.90 12.91 47.94 12.59L47.94 12.59L48.03 13.15L48.03 13.15Q47.53 13.48 46.91 13.67L46.91 13.67L46.91 13.67Q46.30 13.86 45.63 13.86L45.63 13.86ZM52.78 13.55L52.78 13.55Q52.36 13.68 51.73 13.76L51.73 13.76L51.73 13.76Q51.10 13.85 50.72 13.85L50.72 13.85L50.72 13.85Q50.04 13.85 49.78 13.54L49.78 13.54L49.78 13.54Q49.52 13.23 49.52 12.74L49.52 12.74L49.52 7.74L48.51 7.74L48.51 7.14L49.66 6.68L50.40 5.28L51.14 5.28L51.14 6.83L52.98 6.83L52.98 7.84L51.14 7.73L51.14 12.66L52.78 12.96L52.78 13.55ZM56.97 6.71L56.97 6.71Q58.73 6.71 59.56 7.69L59.56 7.69L59.56 7.69Q60.38 8.68 60.38 10.30L60.38 10.30L60.38 10.30Q60.38 11.89 59.54 12.87L59.54 12.87L59.54 12.87Q58.70 13.86 56.97 13.86L56.97 13.86L56.97 13.86Q55.27 13.86 54.44 12.87L54.44 12.87L54.44 12.87Q53.61 11.87 53.61 10.30L53.61 10.30L53.61 10.30Q53.61 8.68 54.42 7.69L54.42 7.69L54.42 7.69Q55.24 6.71 56.97 6.71L56.97 6.71ZM58.60 10.28L58.60 10.28Q58.60 8.97 58.24 8.26L58.24 8.26L58.24 8.26Q57.88 7.55 56.94 7.55L56.94 7.55L56.94 7.55Q56.06 7.55 55.71 8.26L55.71 8.26L55.71 8.26Q55.37 8.97 55.37 10.28L55.37 10.28L55.37 10.28Q55.37 11.56 55.73 12.29L55.73 12.29L55.73 12.29Q56.10 13.01 57.02 13.01L57.02 13.01L57.02 13.01Q57.93 13.01 58.27 12.29L58.27 12.29L58.27 12.29Q58.60 11.58 58.60 10.28L58.60 10.28Z"></path></g><!----><g data-v-423bf9ae="" id="61e9c76a-9f43-41f9-8709-b6e5dddcdb82" transform="matrix(1.4379293781848441,0,0,1.4379293781848441,-11.69659952208957,-9.014705762578338)" stroke="none" fill="black"><path d="M102.923 54.276l-6.311 6.407-41.002-41.05-41.026 41.05-6.395-6.407L55.584 6.887l.071.068.249-.071L75.281 26.08V12.474h8v22.35z"></path><path d="M47.281 40.474h17v29h-17z"></path></g><!----></svg>