<svg data-v-fde0c5aa="" xmlns="http://www.w3.org/2000/svg" viewBox="0 0 300 300" class="iconLeft"><!----><defs data-v-fde0c5aa=""><!----></defs><rect data-v-fde0c5aa="" fill="#000000" x="0" y="0" width="300px" height="300px" class="logo-background-square"></rect><defs data-v-fde0c5aa=""><!----></defs><g data-v-fde0c5aa="" id="ebe49eb6-b406-49bf-8ee7-0c81321095a0" fill="#000000" transform="matrix(30.398187441596242,0,0,30.398187441596242,106.79313645395376,-238.94481063442157)"><path d="M5.04 12.82L5.04 12.82Q5.04 13.26 4.74 13.54L4.74 13.54L4.74 13.54Q4.44 13.83 3.99 13.83L3.99 13.83L3.99 13.83Q3.56 13.83 3.24 13.54L3.24 13.54L3.24 13.54Q2.93 13.24 2.93 12.82L2.93 12.82L2.93 12.82Q2.93 12.39 3.25 12.08L3.25 12.08L3.25 12.08Q3.57 11.76 3.99 11.76L3.99 11.76L3.99 11.76Q4.42 11.76 4.73 12.07L4.73 12.07L4.73 12.07Q5.04 12.38 5.04 12.82L5.04 12.82Z"></path></g><defs data-v-fde0c5aa=""><linearGradient data-v-fde0c5aa="" gradientTransform="rotate(25)" id="7471a31b-0e93-4c17-8695-7399b88a6ae9" x1="0%" y1="0%" x2="100%" y2="0%"><stop data-v-fde0c5aa="" offset="0%" stop-color="#005492" stop-opacity="1"></stop><stop data-v-fde0c5aa="" offset="100%" stop-color="#00ceee" stop-opacity="1"></stop></linearGradient></defs><g data-v-fde0c5aa="" id="8964a726-0cc3-47ab-8b29-249d0a62afe7" stroke="none" fill="url(#7471a31b-0e93-4c17-8695-7399b88a6ae9)" transform="matrix(1.5080101910986794,0,0,1.5080101910986794,27.65090578765502,92.42567906361118)"><path d="M102.923 54.276l-6.311 6.407-41.002-41.05-41.026 41.05-6.395-6.407L55.584 6.887l.071.068.249-.071L75.281 26.08V12.474h8v22.35z"></path><path d="M47.281 40.474h17v29h-17z"></path></g><!----></svg>