<svg data-v-423bf9ae="" xmlns="http://www.w3.org/2000/svg" viewBox="0 0 218 90" class="iconLeft"><!----><!----><!----><g data-v-423bf9ae="" id="df5a57c8-a833-430e-8b66-fd514541cfb2" fill="black" transform="matrix(28.985511519650302,0,0,28.985511519650302,71.29324217530291,-325.869620197996)"><path d="M5.04 12.82L5.04 12.82Q5.04 13.26 4.74 13.54L4.74 13.54L4.74 13.54Q4.44 13.83 3.99 13.83L3.99 13.83L3.99 13.83Q3.56 13.83 3.24 13.54L3.24 13.54L3.24 13.54Q2.93 13.24 2.93 12.82L2.93 12.82L2.93 12.82Q2.93 12.39 3.25 12.08L3.25 12.08L3.25 12.08Q3.57 11.76 3.99 11.76L3.99 11.76L3.99 11.76Q4.42 11.76 4.73 12.07L4.73 12.07L4.73 12.07Q5.04 12.38 5.04 12.82L5.04 12.82Z"></path></g><!----><g data-v-423bf9ae="" id="1d62d5ff-7637-4a7d-89de-7657df2e73e4" transform="matrix(1.4379293781848441,0,0,1.4379293781848441,-11.69659952208957,-9.014705762578338)" stroke="none" fill="black"><path d="M102.923 54.276l-6.311 6.407-41.002-41.05-41.026 41.05-6.395-6.407L55.584 6.887l.071.068.249-.071L75.281 26.08V12.474h8v22.35z"></path><path d="M47.281 40.474h17v29h-17z"></path></g><!----></svg>