<svg data-v-fde0c5aa="" xmlns="http://www.w3.org/2000/svg" viewBox="0 0 300 300" class="font"><!----><defs data-v-fde0c5aa=""><!----></defs><rect data-v-fde0c5aa="" fill="#000000" x="0" y="0" width="300px" height="300px" class="logo-background-square"></rect><defs data-v-fde0c5aa=""><!----></defs><g data-v-fde0c5aa="" id="1de63a6a-988a-4d0b-af4d-45d14d1193a9" fill="#000000" transform="matrix(104.26540802742966,0,0,104.26540802742966,-265.4976524808358,-1184.0759036657819)"><path d="M5.04 12.82L5.04 12.82Q5.04 13.26 4.74 13.54L4.74 13.54L4.74 13.54Q4.44 13.83 3.99 13.83L3.99 13.83L3.99 13.83Q3.56 13.83 3.24 13.54L3.24 13.54L3.24 13.54Q2.93 13.24 2.93 12.82L2.93 12.82L2.93 12.82Q2.93 12.39 3.25 12.08L3.25 12.08L3.25 12.08Q3.57 11.76 3.99 11.76L3.99 11.76L3.99 11.76Q4.42 11.76 4.73 12.07L4.73 12.07L4.73 12.07Q5.04 12.38 5.04 12.82L5.04 12.82Z"></path></g><!----><!----></svg>