<svg data-v-423bf9ae="" xmlns="http://www.w3.org/2000/svg" viewBox="0 0 370.3264311270252 60" class="font"><!----><!----><!----><g data-v-423bf9ae="" id="82054c7a-a538-459c-9887-f946e0facdaf" fill="black" transform="matrix(5.934718302425701,0,0,5.934718302425701,-3.976263254930359,-3.560831957415161)"><path d="M0.67 5.73C0.67 7.36 1.16 8.68 2.00 9.52C2.87 10.39 4.24 10.71 5.81 10.71C6.93 10.71 8.22 10.40 8.89 10.04L9.09 7.70L8.67 7.70C8.27 9.16 7.56 10.22 5.73 10.22C2.84 10.22 2.24 7.38 2.24 5.68C2.24 3.39 3.15 1.09 5.75 1.09C7.18 1.09 8.18 1.68 8.44 3.33L8.86 3.33L8.86 1.15C8.23 0.85 7.17 0.60 5.89 0.60C4.17 0.60 2.79 1.11 1.95 2.04C1.15 2.94 0.67 4.14 0.67 5.73ZM10.26 7.07C10.26 9.34 11.37 10.67 13.62 10.67C15.88 10.67 16.98 9.34 16.98 7.07C16.98 4.80 15.88 3.47 13.62 3.47C11.37 3.47 10.26 4.80 10.26 7.07ZM11.72 7.07C11.72 5.14 12.33 3.96 13.62 3.96C14.91 3.96 15.53 5.14 15.53 7.07C15.53 9.00 14.91 10.18 13.62 10.18C12.33 10.18 11.72 9.00 11.72 7.07ZM18.10 10.50L21.52 10.50L21.52 10.09C20.52 10.02 20.47 10.00 20.47 9.28L20.47 6.01C20.47 5.66 20.50 5.46 20.61 5.24C20.90 4.69 21.53 4.23 22.27 4.23C23.23 4.23 23.74 4.76 23.74 5.98L23.74 9.28C23.74 10.00 23.70 10.02 22.69 10.09L22.69 10.50L26.11 10.50L26.11 10.09C25.12 10.02 25.06 10.00 25.06 9.28L25.06 5.70C25.06 4.28 24.29 3.47 23.00 3.47C21.97 3.47 21.32 3.98 20.45 4.54L20.26 3.47L18.17 3.82L18.17 4.17L18.70 4.24C19.07 4.30 19.15 4.37 19.15 4.87L19.15 9.28C19.15 10.00 19.11 10.02 18.10 10.09ZM26.75 4.20L27.76 4.20L27.76 9.07C27.76 10.50 28.83 10.67 29.32 10.67C30.03 10.67 30.70 10.30 31.11 10.05L31.00 9.76C30.66 9.90 30.35 9.94 30.00 9.94C29.53 9.94 29.08 9.60 29.08 8.54L29.08 4.20L30.88 4.20L30.88 3.64L29.08 3.64L29.08 1.88L28.67 1.88L27.82 3.64L26.75 3.64ZM31.58 10.50L35.28 10.50L35.28 10.09C34.03 10.02 33.95 10.00 33.95 9.28L33.95 6.01C33.95 4.93 34.43 4.56 34.75 4.56C34.97 4.56 35.21 4.65 35.62 4.87C35.71 4.93 35.83 4.94 35.90 4.94C36.23 4.94 36.54 4.59 36.54 4.16C36.54 3.85 36.34 3.47 35.80 3.47C35.29 3.47 34.87 3.78 33.95 4.59L33.78 3.47L31.65 3.82L31.65 4.17L32.19 4.24C32.55 4.30 32.63 4.37 32.63 4.87L32.63 9.28C32.63 10.00 32.56 10.02 31.58 10.09ZM37.27 8.68C37.27 9.73 37.97 10.67 39.28 10.67C40.10 10.67 40.92 10.12 41.37 9.83C41.57 10.35 41.79 10.67 42.28 10.67C42.80 10.67 43.40 10.51 43.93 10.25L43.85 9.91C43.65 9.95 43.34 9.98 43.13 9.93C42.88 9.87 42.64 9.60 42.64 8.72L42.64 5.33C42.64 4.52 42.46 3.47 40.35 3.47C38.77 3.47 37.52 4.30 37.52 5.07C37.52 5.52 38.04 5.73 38.30 5.73C38.60 5.73 38.68 5.57 38.75 5.33C39.06 4.30 39.63 3.96 40.19 3.96C40.74 3.96 41.38 4.24 41.38 5.36L41.38 5.95C41.03 6.31 39.68 6.66 38.57 7.01C37.56 7.32 37.27 8.02 37.27 8.68ZM38.68 8.48C38.68 7.83 38.99 7.49 39.77 7.20C40.33 6.99 41.08 6.72 41.38 6.52L41.38 8.50C41.38 9.63 40.52 9.93 39.97 9.93C39.10 9.93 38.68 9.31 38.68 8.48ZM44.59 7.14C44.59 9.48 45.74 10.67 47.84 10.67C48.82 10.67 50.13 10.15 50.53 8.65L50.12 8.46C49.69 9.44 49.13 9.94 48.10 9.94C46.44 9.94 46.05 8.20 46.05 6.89C46.05 4.80 46.87 3.96 47.84 3.96C48.48 3.96 48.89 4.42 49.17 5.18C49.25 5.40 49.34 5.54 49.60 5.54C49.88 5.54 50.43 5.36 50.43 4.83C50.43 4.19 49.50 3.47 47.99 3.47C45.44 3.47 44.59 5.28 44.59 7.14ZM51.28 4.20L52.29 4.20L52.29 9.07C52.29 10.50 53.35 10.67 53.84 10.67C54.56 10.67 55.23 10.30 55.64 10.05L55.52 9.76C55.19 9.90 54.88 9.94 54.53 9.94C54.05 9.94 53.61 9.60 53.61 8.54L53.61 4.20L55.41 4.20L55.41 3.64L53.61 3.64L53.61 1.88L53.20 1.88L52.35 3.64L51.28 3.64ZM56.35 7.07C56.35 9.34 57.46 10.67 59.71 10.67C61.96 10.67 63.07 9.34 63.07 7.07C63.07 4.80 61.96 3.47 59.71 3.47C57.46 3.47 56.35 4.80 56.35 7.07ZM57.81 7.07C57.81 5.14 58.42 3.96 59.71 3.96C61.00 3.96 61.61 5.14 61.61 7.07C61.61 9.00 61.00 10.18 59.71 10.18C58.42 10.18 57.81 9.00 57.81 7.07Z"></path></g><!----><!----></svg>