<svg data-v-423bf9ae="" xmlns="http://www.w3.org/2000/svg" viewBox="0 0 218 90" class="iconLeft"><!----><!----><!----><g data-v-423bf9ae="" id="7d13f222-b46c-4fea-8726-e14f25a859c9" fill="#000000" transform="matrix(28.985511519650302,0,0,28.985511519650302,71.29324217530291,-325.869620197996)"><path d="M5.04 12.82L5.04 12.82Q5.04 13.26 4.74 13.54L4.74 13.54L4.74 13.54Q4.44 13.83 3.99 13.83L3.99 13.83L3.99 13.83Q3.56 13.83 3.24 13.54L3.24 13.54L3.24 13.54Q2.93 13.24 2.93 12.82L2.93 12.82L2.93 12.82Q2.93 12.39 3.25 12.08L3.25 12.08L3.25 12.08Q3.57 11.76 3.99 11.76L3.99 11.76L3.99 11.76Q4.42 11.76 4.73 12.07L4.73 12.07L4.73 12.07Q5.04 12.38 5.04 12.82L5.04 12.82Z"></path></g><defs data-v-423bf9ae=""><linearGradient data-v-423bf9ae="" gradientTransform="rotate(25)" id="7c333f2a-48e4-4658-9061-10b2650928a2" x1="0%" y1="0%" x2="100%" y2="0%"><stop data-v-423bf9ae="" offset="0%" style="stop-color: rgb(0, 84, 146); stop-opacity: 1;"></stop><stop data-v-423bf9ae="" offset="100%" style="stop-color: rgb(0, 206, 238); stop-opacity: 1;"></stop></linearGradient></defs><g data-v-423bf9ae="" id="a17cf663-180a-448f-93b1-12574626f364" transform="matrix(1.4379293781848441,0,0,1.4379293781848441,-11.69659952208957,-9.014705762578338)" stroke="none" fill="url(#7c333f2a-48e4-4658-9061-10b2650928a2)"><path d="M102.923 54.276l-6.311 6.407-41.002-41.05-41.026 41.05-6.395-6.407L55.584 6.887l.071.068.249-.071L75.281 26.08V12.474h8v22.35z"></path><path d="M47.281 40.474h17v29h-17z"></path></g><!----></svg>