<svg data-v-423bf9ae="" xmlns="http://www.w3.org/2000/svg" viewBox="0 0 61.15942626576097 60" class="font"><!----><!----><!----><g data-v-423bf9ae="" id="7f621e9e-3048-49dc-8480-4d950fbf2fb2" fill="black" transform="matrix(28.985511519650302,0,0,28.985511519650302,-84.92755059508283,-340.86962210534466)"><path d="M5.04 12.82L5.04 12.82Q5.04 13.26 4.74 13.54L4.74 13.54L4.74 13.54Q4.44 13.83 3.99 13.83L3.99 13.83L3.99 13.83Q3.56 13.83 3.24 13.54L3.24 13.54L3.24 13.54Q2.93 13.24 2.93 12.82L2.93 12.82L2.93 12.82Q2.93 12.39 3.25 12.08L3.25 12.08L3.25 12.08Q3.57 11.76 3.99 11.76L3.99 11.76L3.99 11.76Q4.42 11.76 4.73 12.07L4.73 12.07L4.73 12.07Q5.04 12.38 5.04 12.82L5.04 12.82Z"></path></g><!----><!----></svg>